<svg width="634" height="534" xmlns="http://www.w3.org/2000/svg" xmlns:xlink="http://www.w3.org/1999/xlink" overflow="hidden"><defs><clipPath id="clip0"><path d="M323 100 957 100 957 634 323 634Z" fill-rule="evenodd" clip-rule="evenodd"/></clipPath></defs><g clip-path="url(#clip0)" transform="translate(-323 -100)"><rect x="324" y="501" width="316" height="133" fill="#003399"/><path d="M0 54 0 0 316 54Z" fill="#003399" fill-rule="evenodd" transform="matrix(-1 -8.74228e-08 -8.74228e-08 1 640 447)"/><rect x="0" y="0" width="316" height="133" fill="#003399" transform="matrix(-1 -8.74228e-08 -8.74228e-08 1 956 501)"/><path d="M640 501 640 447 956 501Z" fill="#003399" fill-rule="evenodd"/><path d="M762.309 102.9C860.721 102.9 940.5 182.504 940.5 280.7 940.5 378.896 860.721 458.5 762.309 458.5 719.253 458.5 679.764 443.263 648.962 417.899L640.279 410.025 644.692 406.023C676.938 373.848 696.883 329.398 696.883 280.3 696.883 231.202 676.938 186.752 644.692 154.576L640.721 150.975 648.962 143.501C679.764 118.137 719.253 102.9 762.309 102.9ZM518.691 102.5C561.747 102.5 601.236 117.737 632.038 143.101L640.721 150.975 636.308 154.977C604.062 187.152 584.117 231.602 584.117 280.7 584.117 329.798 604.062 374.248 636.308 406.424L640.279 410.025 632.038 417.499C601.236 442.863 561.747 458.1 518.691 458.1 420.279 458.1 340.5 378.496 340.5 280.3 340.5 182.104 420.279 102.5 518.691 102.5Z" stroke="#4472C4" stroke-miterlimit="8" fill="#003399" fill-rule="evenodd"/><path d="M561 308.772C569.94 313.617 606.714 336.791 617.206 311.097 627.699 285.403 625.775 216.496 640 217.003" stroke="#003399" stroke-width="24" stroke-miterlimit="8" fill="none" fill-rule="evenodd"/><path d="M0 91.7721C8.93981 96.6165 45.7136 119.791 56.2063 94.0968 66.6991 68.4026 64.7748-0.503686 79 0.00280747" stroke="#003399" stroke-width="24" stroke-miterlimit="8" fill="none" fill-rule="evenodd" transform="matrix(-1 -8.74228e-08 -8.74228e-08 1 719 217)"/><path d="M630 216.5C630 214.567 631.567 213 633.5 213L647.5 213C649.433 213 651 214.567 651 216.5L651 241.5C651 243.433 649.433 245 647.5 245L633.5 245C631.567 245 630 243.433 630 241.5Z" fill="#003399" fill-rule="evenodd"/></g></svg>