<?xml version="1.0" encoding="UTF-8" standalone="no"?>
<svg
   xmlns:dc="http://purl.org/dc/elements/1.1/"
   xmlns:cc="http://creativecommons.org/ns#"
   xmlns:rdf="http://www.w3.org/1999/02/22-rdf-syntax-ns#"
   xmlns:svg="http://www.w3.org/2000/svg"
   xmlns="http://www.w3.org/2000/svg"
   xmlns:sodipodi="http://sodipodi.sourceforge.net/DTD/sodipodi-0.dtd"
   xmlns:inkscape="http://www.inkscape.org/namespaces/inkscape"
   width="1131.3063"
   height="736"
   overflow="hidden"
   version="1.1"
   id="svg43"
   sodipodi:docname="SWD_logo_white_RTD.svg"
   style="overflow:hidden"
   inkscape:version="0.92.2 (5c3e80d, 2017-08-06)">
  <metadata
     id="metadata47">
    <rdf:RDF>
      <cc:Work
         rdf:about="">
        <dc:format>image/svg+xml</dc:format>
        <dc:type
           rdf:resource="http://purl.org/dc/dcmitype/StillImage" />
        <dc:title></dc:title>
      </cc:Work>
    </rdf:RDF>
  </metadata>
  <sodipodi:namedview
     pagecolor="#ffffff"
     bordercolor="#666666"
     borderopacity="1"
     objecttolerance="10"
     gridtolerance="10"
     guidetolerance="10"
     inkscape:pageopacity="0"
     inkscape:pageshadow="2"
     inkscape:window-width="2560"
     inkscape:window-height="1377"
     id="namedview45"
     showgrid="false"
     inkscape:pagecheckerboard="false"
     scale-x="1.6"
     fit-margin-top="100"
     fit-margin-left="300"
     fit-margin-right="300"
     fit-margin-bottom="100"
     inkscape:zoom="0.43866171"
     inkscape:cx="565.30622"
     inkscape:cy="369"
     inkscape:window-x="-8"
     inkscape:window-y="-8"
     inkscape:window-maximized="1"
     inkscape:current-layer="svg43" />
  <defs
     id="defs5">
    <clipPath
       id="clip0">
      <path
         d="M 323,100 H 955 V 638 H 323 Z"
         id="path2"
         inkscape:connector-curvature="0"
         style="clip-rule:evenodd;fill-rule:evenodd" />
    </clipPath>
  </defs>
  <g
     clip-path="url(#clip0)"
     transform="translate(-73.693786,-2)"
     id="g41">
    <path
       d="m 762.309,102.9 c 98.412,0 178.191,79.604 178.191,177.8 0,98.196 -79.779,177.8 -178.191,177.8 -43.056,0 -82.545,-15.237 -113.347,-40.601 l -8.683,-7.874 4.413,-4.002 c 32.246,-32.175 52.191,-76.625 52.191,-125.723 0,-49.098 -19.945,-93.548 -52.191,-125.724 l -3.971,-3.601 8.241,-7.474 C 679.764,118.137 719.253,102.9 762.309,102.9 Z m -243.618,-0.4 c 43.056,0 82.545,15.237 113.347,40.601 l 8.683,7.874 -4.413,4.002 c -32.246,32.175 -52.191,76.625 -52.191,125.723 0,49.098 19.945,93.548 52.191,125.724 l 3.971,3.601 -8.241,7.474 C 601.236,442.863 561.747,458.1 518.691,458.1 420.279,458.1 340.5,378.496 340.5,280.3 c 0,-98.196 79.779,-177.8 178.191,-177.8 z"
       stroke-miterlimit="8"
       id="path7"
       inkscape:connector-curvature="0"
       style="fill:#ffffff;fill-rule:evenodd;stroke:#ffffff;stroke-miterlimit:8" />
    <path
       d="M 574.685,616.363 536.5,501.5"
       stroke-miterlimit="8"
       id="path9"
       inkscape:connector-curvature="0"
       style="fill:none;fill-rule:evenodd;stroke:#ffffff;stroke-width:43;stroke-linecap:round;stroke-miterlimit:8" />
    <path
       d="M 0,0 64.2471,150.153"
       stroke-miterlimit="8"
       transform="matrix(1,0,0,-1,574.5,615.653)"
       id="path11"
       inkscape:connector-curvature="0"
       style="fill:none;fill-rule:evenodd;stroke:#ffffff;stroke-width:43;stroke-linecap:round;stroke-miterlimit:8" />
    <path
       d="M 0,0 38.1846,114.863"
       stroke-miterlimit="8"
       transform="matrix(1,0,0,-1,706.5,616.363)"
       id="path13"
       inkscape:connector-curvature="0"
       style="fill:none;fill-rule:evenodd;stroke:#ffffff;stroke-width:43;stroke-linecap:round;stroke-miterlimit:8" />
    <path
       d="M 706.747,615.653 642.5,465.5"
       stroke-miterlimit="8"
       id="path15"
       inkscape:connector-curvature="0"
       style="fill:none;fill-rule:evenodd;stroke:#ffffff;stroke-width:43;stroke-linecap:round;stroke-miterlimit:8" />
    <path
       d="M 0,0 138.139,11.1885"
       stroke-miterlimit="8"
       transform="matrix(-1,-8.74228e-8,-8.74228e-8,1,484.639,506.5)"
       id="path17"
       inkscape:connector-curvature="0"
       style="fill:none;fill-rule:evenodd;stroke:#ffffff;stroke-width:43;stroke-linecap:round;stroke-miterlimit:8" />
    <path
       d="M 0,0 1.04987e-4,38.2933"
       stroke-miterlimit="8"
       transform="matrix(1,0,0,-1,346.5,559.793)"
       id="path19"
       inkscape:connector-curvature="0"
       style="fill:none;fill-rule:evenodd;stroke:#ffffff;stroke-width:43;stroke-linecap:round;stroke-miterlimit:8" />
    <path
       d="M 0,0 138.139,1.04987e-4"
       stroke-miterlimit="8"
       transform="matrix(-1,-8.74228e-8,-8.74228e-8,1,484.639,564.5)"
       id="path21"
       inkscape:connector-curvature="0"
       style="fill:none;fill-rule:evenodd;stroke:#ffffff;stroke-width:43;stroke-linecap:round;stroke-miterlimit:8" />
    <path
       d="M 0,0 1.04987e-4,47.0216"
       stroke-miterlimit="8"
       transform="matrix(1,0,0,-1,485.5,612.522)"
       id="path23"
       inkscape:connector-curvature="0"
       style="fill:none;fill-rule:evenodd;stroke:#ffffff;stroke-width:43;stroke-linecap:round;stroke-miterlimit:8" />
    <path
       d="M 0,0 139.458,1.04987e-4"
       stroke-miterlimit="8"
       transform="matrix(-1,-8.74228e-8,-8.74228e-8,1,484.958,612.5)"
       id="path25"
       inkscape:connector-curvature="0"
       style="fill:none;fill-rule:evenodd;stroke:#ffffff;stroke-width:43;stroke-linecap:round;stroke-miterlimit:8" />
    <path
       d="M 933.756,519.655 797.5,506.5"
       stroke-miterlimit="8"
       id="path27"
       inkscape:connector-curvature="0"
       style="fill:none;fill-rule:evenodd;stroke:#ffffff;stroke-width:43;stroke-linecap:round;stroke-miterlimit:8" />
    <path
       d="M 0,0 1.04987e-4,105.462"
       stroke-miterlimit="8"
       transform="matrix(1,0,0,-1,796.5,612.962)"
       id="path29"
       inkscape:connector-curvature="0"
       style="fill:none;fill-rule:evenodd;stroke:#ffffff;stroke-width:43;stroke-linecap:round;stroke-miterlimit:8" />
    <path
       d="M 0,0 1.04987e-4,93.0879"
       stroke-miterlimit="8"
       transform="matrix(1,0,0,-1,933.5,612.588)"
       id="path31"
       inkscape:connector-curvature="0"
       style="fill:none;fill-rule:evenodd;stroke:#ffffff;stroke-width:43;stroke-linecap:round;stroke-miterlimit:8" />
    <path
       d="M 0,0 134.006,1.04987e-4"
       stroke-miterlimit="8"
       transform="matrix(-1,-8.74228e-8,-8.74228e-8,1,931.506,612.5)"
       id="path33"
       inkscape:connector-curvature="0"
       style="fill:none;fill-rule:evenodd;stroke:#ffffff;stroke-width:43;stroke-linecap:round;stroke-miterlimit:8" />
    <path
       d="m 561,308.772 c 8.94,4.845 45.714,28.019 56.206,2.325 10.493,-25.694 8.569,-94.601 22.794,-94.094"
       stroke-miterlimit="8"
       id="path35"
       inkscape:connector-curvature="0"
       style="fill:none;fill-rule:evenodd;stroke:#ffffff;stroke-width:24;stroke-miterlimit:8" />
    <path
       d="M 0,91.7721 C 8.93981,96.6165 45.7136,119.791 56.2063,94.0968 66.6991,68.4026 64.7748,-0.503686 79,0.00280747"
       stroke-miterlimit="8"
       transform="matrix(-1,-8.74228e-8,-8.74228e-8,1,719,217)"
       id="path37"
       inkscape:connector-curvature="0"
       style="fill:none;fill-rule:evenodd;stroke:#ffffff;stroke-width:24;stroke-miterlimit:8" />
    <path
       d="m 630,216.5 c 0,-1.933 1.567,-3.5 3.5,-3.5 h 14 c 1.933,0 3.5,1.567 3.5,3.5 v 25 c 0,1.933 -1.567,3.5 -3.5,3.5 h -14 c -1.933,0 -3.5,-1.567 -3.5,-3.5 z"
       id="path39"
       inkscape:connector-curvature="0"
       style="fill:#ffffff;fill-rule:evenodd" />
  </g>
</svg>
